<?xml version="1.0" encoding="utf-8" standalone="no"?>
<!DOCTYPE svg PUBLIC "-//W3C//DTD SVG 1.1//EN"
  "http://www.w3.org/Graphics/SVG/1.1/DTD/svg11.dtd">
<svg xmlns:xlink="http://www.w3.org/1999/xlink" width="1382.4pt" height="696.24pt" viewBox="0 0 1382.4 696.24" xmlns="http://www.w3.org/2000/svg" version="1.1">
 <metadata>
  <rdf:RDF xmlns:dc="http://purl.org/dc/elements/1.1/" xmlns:cc="http://creativecommons.org/ns#" xmlns:rdf="http://www.w3.org/1999/02/22-rdf-syntax-ns#">
   <cc:Work>
    <dc:type rdf:resource="http://purl.org/dc/dcmitype/StillImage"/>
    <dc:date>2026-04-28T16:44:24.802089</dc:date>
    <dc:format>image/svg+xml</dc:format>
    <dc:creator>
     <cc:Agent>
      <dc:title>Matplotlib v3.10.6, https://matplotlib.org/</dc:title>
     </cc:Agent>
    </dc:creator>
   </cc:Work>
  </rdf:RDF>
 </metadata>
 <defs>
  <style type="text/css">*{stroke-linejoin: round; stroke-linecap: butt}</style>
 </defs>
 <g id="figure_1">
  <g id="patch_1">
   <path d="M 0 696.24 
L 1382.4 696.24 
L 1382.4 0 
L 0 0 
z
" style="fill: #ffffff"/>
  </g>
  <g id="axes_1">
   <g id="patch_2">
    <path d="M 172.8 619.6536 
L 1244.16 619.6536 
L 1244.16 83.5488 
L 172.8 83.5488 
z
" style="fill: #ffffff"/>
   </g>
   <g id="patch_3">
    <path d="M 221.498182 619.6536 
L 230.540285 619.6536 
L 230.540285 608.942569 
L 221.498182 608.942569 
z
" clip-path="url(#p74cf76582e)" style="fill: #4682b4"/>
   </g>
   <g id="patch_4">
    <path d="M 247.332761 619.6536 
L 256.374864 619.6536 
L 256.374864 617.645282 
L 247.332761 617.645282 
z
" clip-path="url(#p74cf76582e)" style="fill: #4682b4"/>
   </g>
   <g id="patch_5">
    <path d="M 273.16734 619.6536 
L 282.209443 619.6536 
L 282.209443 616.306403 
L 273.16734 616.306403 
z
" clip-path="url(#p74cf76582e)" style="fill: #4682b4"/>
   </g>
   <g id="patch_6">
    <path d="M 299.001919 619.6536 
L 308.044022 619.6536 
L 308.044022 572.79284 
L 299.001919 572.79284 
z
" clip-path="url(#p74cf76582e)" style="fill: #4682b4"/>
   </g>
   <g id="patch_7">
    <path d="M 324.836499 619.6536 
L 333.878601 619.6536 
L 333.878601 578.817794 
L 324.836499 578.817794 
z
" clip-path="url(#p74cf76582e)" style="fill: #4682b4"/>
   </g>
   <g id="patch_8">
    <path d="M 350.671078 619.6536 
L 359.713181 619.6536 
L 359.713181 559.404051 
L 350.671078 559.404051 
z
" clip-path="url(#p74cf76582e)" style="fill: #4682b4"/>
   </g>
   <g id="patch_9">
    <path d="M 376.505657 619.6536 
L 385.54776 619.6536 
L 385.54776 604.256493 
L 376.505657 604.256493 
z
" clip-path="url(#p74cf76582e)" style="fill: #4682b4"/>
   </g>
   <g id="patch_10">
    <path d="M 402.340236 619.6536 
L 411.382339 619.6536 
L 411.382339 612.289766 
L 402.340236 612.289766 
z
" clip-path="url(#p74cf76582e)" style="fill: #4682b4"/>
   </g>
   <g id="patch_11">
    <path d="M 428.174816 619.6536 
L 437.216918 619.6536 
L 437.216918 599.570417 
L 428.174816 599.570417 
z
" clip-path="url(#p74cf76582e)" style="fill: #4682b4"/>
   </g>
   <g id="patch_12">
    <path d="M 454.009395 619.6536 
L 463.051497 619.6536 
L 463.051497 602.248175 
L 454.009395 602.248175 
z
" clip-path="url(#p74cf76582e)" style="fill: #4682b4"/>
   </g>
   <g id="patch_13">
    <path d="M 479.843974 619.6536 
L 488.886077 619.6536 
L 488.886077 610.281448 
L 479.843974 610.281448 
z
" clip-path="url(#p74cf76582e)" style="fill: #4682b4"/>
   </g>
   <g id="patch_14">
    <path d="M 505.678553 619.6536 
L 514.720656 619.6536 
L 514.720656 371.961009 
L 505.678553 371.961009 
z
" clip-path="url(#p74cf76582e)" style="fill: #4682b4"/>
   </g>
   <g id="patch_15">
    <path d="M 531.513132 619.6536 
L 540.555235 619.6536 
L 540.555235 616.306403 
L 531.513132 616.306403 
z
" clip-path="url(#p74cf76582e)" style="fill: #4682b4"/>
   </g>
   <g id="patch_16">
    <path d="M 557.347712 619.6536 
L 566.389814 619.6536 
L 566.389814 213.973302 
L 557.347712 213.973302 
z
" clip-path="url(#p74cf76582e)" style="fill: #4682b4"/>
   </g>
   <g id="patch_17">
    <path d="M 583.182291 619.6536 
L 592.224394 619.6536 
L 592.224394 599.570417 
L 583.182291 599.570417 
z
" clip-path="url(#p74cf76582e)" style="fill: #4682b4"/>
   </g>
   <g id="patch_18">
    <path d="M 609.01687 619.6536 
L 618.058973 619.6536 
L 618.058973 608.27313 
L 609.01687 608.27313 
z
" clip-path="url(#p74cf76582e)" style="fill: #4682b4"/>
   </g>
   <g id="patch_19">
    <path d="M 634.851449 619.6536 
L 643.893552 619.6536 
L 643.893552 584.842749 
L 634.851449 584.842749 
z
" clip-path="url(#p74cf76582e)" style="fill: #4682b4"/>
   </g>
   <g id="patch_20">
    <path d="M 660.686028 619.6536 
L 669.728131 619.6536 
L 669.728131 604.256493 
L 660.686028 604.256493 
z
" clip-path="url(#p74cf76582e)" style="fill: #4682b4"/>
   </g>
   <g id="patch_21">
    <path d="M 686.520608 619.6536 
L 695.56271 619.6536 
L 695.56271 556.726293 
L 686.520608 556.726293 
z
" clip-path="url(#p74cf76582e)" style="fill: #4682b4"/>
   </g>
   <g id="patch_22">
    <path d="M 712.355187 619.6536 
L 721.39729 619.6536 
L 721.39729 613.628645 
L 712.355187 613.628645 
z
" clip-path="url(#p74cf76582e)" style="fill: #4682b4"/>
   </g>
   <g id="patch_23">
    <path d="M 738.189766 619.6536 
L 747.231869 619.6536 
L 747.231869 552.709656 
L 738.189766 552.709656 
z
" clip-path="url(#p74cf76582e)" style="fill: #4682b4"/>
   </g>
   <g id="patch_24">
    <path d="M 764.024345 619.6536 
L 773.066448 619.6536 
L 773.066448 417.482891 
L 764.024345 417.482891 
z
" clip-path="url(#p74cf76582e)" style="fill: #4682b4"/>
   </g>
   <g id="patch_25">
    <path d="M 789.858925 619.6536 
L 798.901027 619.6536 
L 798.901027 586.851068 
L 789.858925 586.851068 
z
" clip-path="url(#p74cf76582e)" style="fill: #4682b4"/>
   </g>
   <g id="patch_26">
    <path d="M 815.693504 619.6536 
L 824.735606 619.6536 
L 824.735606 587.520507 
L 815.693504 587.520507 
z
" clip-path="url(#p74cf76582e)" style="fill: #4682b4"/>
   </g>
   <g id="patch_27">
    <path d="M 841.528083 619.6536 
L 850.570186 619.6536 
L 850.570186 597.562099 
L 841.528083 597.562099 
z
" clip-path="url(#p74cf76582e)" style="fill: #4682b4"/>
   </g>
   <g id="patch_28">
    <path d="M 867.362662 619.6536 
L 876.404765 619.6536 
L 876.404765 563.420687 
L 867.362662 563.420687 
z
" clip-path="url(#p74cf76582e)" style="fill: #4682b4"/>
   </g>
   <g id="patch_29">
    <path d="M 893.197241 619.6536 
L 902.239344 619.6536 
L 902.239344 617.645282 
L 893.197241 617.645282 
z
" clip-path="url(#p74cf76582e)" style="fill: #4682b4"/>
   </g>
   <g id="patch_30">
    <path d="M 919.031821 619.6536 
L 928.073923 619.6536 
L 928.073923 193.22068 
L 919.031821 193.22068 
z
" clip-path="url(#p74cf76582e)" style="fill: #4682b4"/>
   </g>
   <g id="patch_31">
    <path d="M 944.8664 619.6536 
L 953.908503 619.6536 
L 953.908503 616.975842 
L 944.8664 616.975842 
z
" clip-path="url(#p74cf76582e)" style="fill: #4682b4"/>
   </g>
   <g id="patch_32">
    <path d="M 970.700979 619.6536 
L 979.743082 619.6536 
L 979.743082 581.495552 
L 970.700979 581.495552 
z
" clip-path="url(#p74cf76582e)" style="fill: #4682b4"/>
   </g>
   <g id="patch_33">
    <path d="M 996.535558 619.6536 
L 1005.577661 619.6536 
L 1005.577661 614.967524 
L 996.535558 614.967524 
z
" clip-path="url(#p74cf76582e)" style="fill: #4682b4"/>
   </g>
   <g id="patch_34">
    <path d="M 1022.370137 619.6536 
L 1031.41224 619.6536 
L 1031.41224 595.55378 
L 1022.370137 595.55378 
z
" clip-path="url(#p74cf76582e)" style="fill: #4682b4"/>
   </g>
   <g id="patch_35">
    <path d="M 1048.204717 619.6536 
L 1057.246819 619.6536 
L 1057.246819 612.959206 
L 1048.204717 612.959206 
z
" clip-path="url(#p74cf76582e)" style="fill: #4682b4"/>
   </g>
   <g id="patch_36">
    <path d="M 1074.039296 619.6536 
L 1083.081399 619.6536 
L 1083.081399 594.884341 
L 1074.039296 594.884341 
z
" clip-path="url(#p74cf76582e)" style="fill: #4682b4"/>
   </g>
   <g id="patch_37">
    <path d="M 1099.873875 619.6536 
L 1108.915978 619.6536 
L 1108.915978 614.298085 
L 1099.873875 614.298085 
z
" clip-path="url(#p74cf76582e)" style="fill: #4682b4"/>
   </g>
   <g id="patch_38">
    <path d="M 1125.708454 619.6536 
L 1134.750557 619.6536 
L 1134.750557 606.264811 
L 1125.708454 606.264811 
z
" clip-path="url(#p74cf76582e)" style="fill: #4682b4"/>
   </g>
   <g id="patch_39">
    <path d="M 1151.543034 619.6536 
L 1160.585136 619.6536 
L 1160.585136 614.967524 
L 1151.543034 614.967524 
z
" clip-path="url(#p74cf76582e)" style="fill: #4682b4"/>
   </g>
   <g id="patch_40">
    <path d="M 1177.377613 619.6536 
L 1186.419715 619.6536 
L 1186.419715 596.892659 
L 1177.377613 596.892659 
z
" clip-path="url(#p74cf76582e)" style="fill: #4682b4"/>
   </g>
   <g id="patch_41">
    <path d="M 230.540285 619.6536 
L 239.582387 619.6536 
L 239.582387 617.448088 
L 230.540285 617.448088 
z
" clip-path="url(#p74cf76582e)" style="fill: #ff7f50"/>
   </g>
   <g id="patch_42">
    <path d="M 256.374864 619.6536 
L 265.416966 619.6536 
L 265.416966 619.6536 
L 256.374864 619.6536 
z
" clip-path="url(#p74cf76582e)" style="fill: #ff7f50"/>
   </g>
   <g id="patch_43">
    <path d="M 282.209443 619.6536 
L 291.251546 619.6536 
L 291.251546 619.6536 
L 282.209443 619.6536 
z
" clip-path="url(#p74cf76582e)" style="fill: #ff7f50"/>
   </g>
   <g id="patch_44">
    <path d="M 308.044022 619.6536 
L 317.086125 619.6536 
L 317.086125 563.413047 
L 308.044022 563.413047 
z
" clip-path="url(#p74cf76582e)" style="fill: #ff7f50"/>
   </g>
   <g id="patch_45">
    <path d="M 333.878601 619.6536 
L 342.920704 619.6536 
L 342.920704 587.673678 
L 333.878601 587.673678 
z
" clip-path="url(#p74cf76582e)" style="fill: #ff7f50"/>
   </g>
   <g id="patch_46">
    <path d="M 359.713181 619.6536 
L 368.755283 619.6536 
L 368.755283 551.282732 
L 359.713181 551.282732 
z
" clip-path="url(#p74cf76582e)" style="fill: #ff7f50"/>
   </g>
   <g id="patch_47">
    <path d="M 385.54776 619.6536 
L 394.589863 619.6536 
L 394.589863 608.626041 
L 385.54776 608.626041 
z
" clip-path="url(#p74cf76582e)" style="fill: #ff7f50"/>
   </g>
   <g id="patch_48">
    <path d="M 411.382339 619.6536 
L 420.424442 619.6536 
L 420.424442 608.626041 
L 411.382339 608.626041 
z
" clip-path="url(#p74cf76582e)" style="fill: #ff7f50"/>
   </g>
   <g id="patch_49">
    <path d="M 437.216918 619.6536 
L 446.259021 619.6536 
L 446.259021 582.159898 
L 437.216918 582.159898 
z
" clip-path="url(#p74cf76582e)" style="fill: #ff7f50"/>
   </g>
   <g id="patch_50">
    <path d="M 463.051497 619.6536 
L 472.0936 619.6536 
L 472.0936 613.037064 
L 463.051497 613.037064 
z
" clip-path="url(#p74cf76582e)" style="fill: #ff7f50"/>
   </g>
   <g id="patch_51">
    <path d="M 488.886077 619.6536 
L 497.928179 619.6536 
L 497.928179 614.13982 
L 488.886077 614.13982 
z
" clip-path="url(#p74cf76582e)" style="fill: #ff7f50"/>
   </g>
   <g id="patch_52">
    <path d="M 514.720656 619.6536 
L 523.762759 619.6536 
L 523.762759 384.766585 
L 514.720656 384.766585 
z
" clip-path="url(#p74cf76582e)" style="fill: #ff7f50"/>
   </g>
   <g id="patch_53">
    <path d="M 540.555235 619.6536 
L 549.597338 619.6536 
L 549.597338 619.6536 
L 540.555235 619.6536 
z
" clip-path="url(#p74cf76582e)" style="fill: #ff7f50"/>
   </g>
   <g id="patch_54">
    <path d="M 566.389814 619.6536 
L 575.431917 619.6536 
L 575.431917 139.954766 
L 566.389814 139.954766 
z
" clip-path="url(#p74cf76582e)" style="fill: #ff7f50"/>
   </g>
   <g id="patch_55">
    <path d="M 592.224394 619.6536 
L 601.266496 619.6536 
L 601.266496 592.084702 
L 592.224394 592.084702 
z
" clip-path="url(#p74cf76582e)" style="fill: #ff7f50"/>
   </g>
   <g id="patch_56">
    <path d="M 618.058973 619.6536 
L 627.101075 619.6536 
L 627.101075 619.6536 
L 618.058973 619.6536 
z
" clip-path="url(#p74cf76582e)" style="fill: #ff7f50"/>
   </g>
   <g id="patch_57">
    <path d="M 643.893552 619.6536 
L 652.935655 619.6536 
L 652.935655 589.87919 
L 643.893552 589.87919 
z
" clip-path="url(#p74cf76582e)" style="fill: #ff7f50"/>
   </g>
   <g id="patch_58">
    <path d="M 669.728131 619.6536 
L 678.770234 619.6536 
L 678.770234 604.215017 
L 669.728131 604.215017 
z
" clip-path="url(#p74cf76582e)" style="fill: #ff7f50"/>
   </g>
   <g id="patch_59">
    <path d="M 695.56271 619.6536 
L 704.604813 619.6536 
L 704.604813 574.440606 
L 695.56271 574.440606 
z
" clip-path="url(#p74cf76582e)" style="fill: #ff7f50"/>
   </g>
   <g id="patch_60">
    <path d="M 721.39729 619.6536 
L 730.439392 619.6536 
L 730.439392 619.6536 
L 721.39729 619.6536 
z
" clip-path="url(#p74cf76582e)" style="fill: #ff7f50"/>
   </g>
   <g id="patch_61">
    <path d="M 747.231869 619.6536 
L 756.273972 619.6536 
L 756.273972 549.07722 
L 747.231869 549.07722 
z
" clip-path="url(#p74cf76582e)" style="fill: #ff7f50"/>
   </g>
   <g id="patch_62">
    <path d="M 773.066448 619.6536 
L 782.108551 619.6536 
L 782.108551 484.014619 
L 773.066448 484.014619 
z
" clip-path="url(#p74cf76582e)" style="fill: #ff7f50"/>
   </g>
   <g id="patch_63">
    <path d="M 798.901027 619.6536 
L 807.94313 619.6536 
L 807.94313 606.420529 
L 798.901027 606.420529 
z
" clip-path="url(#p74cf76582e)" style="fill: #ff7f50"/>
   </g>
   <g id="patch_64">
    <path d="M 824.735606 619.6536 
L 833.777709 619.6536 
L 833.777709 588.776434 
L 824.735606 588.776434 
z
" clip-path="url(#p74cf76582e)" style="fill: #ff7f50"/>
   </g>
   <g id="patch_65">
    <path d="M 850.570186 619.6536 
L 859.612288 619.6536 
L 859.612288 607.523285 
L 850.570186 607.523285 
z
" clip-path="url(#p74cf76582e)" style="fill: #ff7f50"/>
   </g>
   <g id="patch_66">
    <path d="M 876.404765 619.6536 
L 885.446868 619.6536 
L 885.446868 532.535881 
L 876.404765 532.535881 
z
" clip-path="url(#p74cf76582e)" style="fill: #ff7f50"/>
   </g>
   <g id="patch_67">
    <path d="M 902.239344 619.6536 
L 911.281447 619.6536 
L 911.281447 619.6536 
L 902.239344 619.6536 
z
" clip-path="url(#p74cf76582e)" style="fill: #ff7f50"/>
   </g>
   <g id="patch_68">
    <path d="M 928.073923 619.6536 
L 937.116026 619.6536 
L 937.116026 109.0776 
L 928.073923 109.0776 
z
" clip-path="url(#p74cf76582e)" style="fill: #ff7f50"/>
   </g>
   <g id="patch_69">
    <path d="M 953.908503 619.6536 
L 962.950605 619.6536 
L 962.950605 619.6536 
L 953.908503 619.6536 
z
" clip-path="url(#p74cf76582e)" style="fill: #ff7f50"/>
   </g>
   <g id="patch_70">
    <path d="M 979.743082 619.6536 
L 988.785184 619.6536 
L 988.785184 586.570922 
L 979.743082 586.570922 
z
" clip-path="url(#p74cf76582e)" style="fill: #ff7f50"/>
   </g>
   <g id="patch_71">
    <path d="M 1005.577661 619.6536 
L 1014.619764 619.6536 
L 1014.619764 618.550844 
L 1005.577661 618.550844 
z
" clip-path="url(#p74cf76582e)" style="fill: #ff7f50"/>
   </g>
   <g id="patch_72">
    <path d="M 1031.41224 619.6536 
L 1040.454343 619.6536 
L 1040.454343 608.626041 
L 1031.41224 608.626041 
z
" clip-path="url(#p74cf76582e)" style="fill: #ff7f50"/>
   </g>
   <g id="patch_73">
    <path d="M 1057.246819 619.6536 
L 1066.288922 619.6536 
L 1066.288922 614.13982 
L 1057.246819 614.13982 
z
" clip-path="url(#p74cf76582e)" style="fill: #ff7f50"/>
   </g>
   <g id="patch_74">
    <path d="M 1083.081399 619.6536 
L 1092.123501 619.6536 
L 1092.123501 588.776434 
L 1083.081399 588.776434 
z
" clip-path="url(#p74cf76582e)" style="fill: #ff7f50"/>
   </g>
   <g id="patch_75">
    <path d="M 1108.915978 619.6536 
L 1117.958081 619.6536 
L 1117.958081 619.6536 
L 1108.915978 619.6536 
z
" clip-path="url(#p74cf76582e)" style="fill: #ff7f50"/>
   </g>
   <g id="patch_76">
    <path d="M 1134.750557 619.6536 
L 1143.79266 619.6536 
L 1143.79266 615.242576 
L 1134.750557 615.242576 
z
" clip-path="url(#p74cf76582e)" style="fill: #ff7f50"/>
   </g>
   <g id="patch_77">
    <path d="M 1160.585136 619.6536 
L 1169.627239 619.6536 
L 1169.627239 619.6536 
L 1160.585136 619.6536 
z
" clip-path="url(#p74cf76582e)" style="fill: #ff7f50"/>
   </g>
   <g id="patch_78">
    <path d="M 1186.419715 619.6536 
L 1195.461818 619.6536 
L 1195.461818 599.803993 
L 1186.419715 599.803993 
z
" clip-path="url(#p74cf76582e)" style="fill: #ff7f50"/>
   </g>
   <g id="matplotlib.axis_1">
    <g id="xtick_1">
     <g id="line2d_1">
      <defs>
       <path id="m46d768ed55" d="M 0 0 
L 0 3.5 
" style="stroke: #000000; stroke-width: 0.8"/>
      </defs>
      <g>
       <use xlink:href="#m46d768ed55" x="230.540285" y="619.6536" style="stroke: #000000; stroke-width: 0.8"/>
      </g>
     </g>
     <g id="text_1">
      <text style="font-size: 10px; font-family: 'DejaVu Sans', 'Bitstream Vera Sans', 'Computer Modern Sans Serif', 'Lucida Grande', 'Verdana', 'Geneva', 'Lucid', 'Arial', 'Helvetica', 'Avant Garde', sans-serif; text-anchor: middle" x="230.540285" y="634.252038" transform="rotate(-0 230.540285 634.252038)">0</text>
     </g>
    </g>
    <g id="xtick_2">
     <g id="line2d_2">
      <g>
       <use xlink:href="#m46d768ed55" x="359.713181" y="619.6536" style="stroke: #000000; stroke-width: 0.8"/>
      </g>
     </g>
     <g id="text_2">
      <text style="font-size: 10px; font-family: 'DejaVu Sans', 'Bitstream Vera Sans', 'Computer Modern Sans Serif', 'Lucida Grande', 'Verdana', 'Geneva', 'Lucid', 'Arial', 'Helvetica', 'Avant Garde', sans-serif; text-anchor: middle" x="359.713181" y="634.252038" transform="rotate(-0 359.713181 634.252038)">5</text>
     </g>
    </g>
    <g id="xtick_3">
     <g id="line2d_3">
      <g>
       <use xlink:href="#m46d768ed55" x="488.886077" y="619.6536" style="stroke: #000000; stroke-width: 0.8"/>
      </g>
     </g>
     <g id="text_3">
      <text style="font-size: 10px; font-family: 'DejaVu Sans', 'Bitstream Vera Sans', 'Computer Modern Sans Serif', 'Lucida Grande', 'Verdana', 'Geneva', 'Lucid', 'Arial', 'Helvetica', 'Avant Garde', sans-serif; text-anchor: middle" x="488.886077" y="634.252038" transform="rotate(-0 488.886077 634.252038)">10</text>
     </g>
    </g>
    <g id="xtick_4">
     <g id="line2d_4">
      <g>
       <use xlink:href="#m46d768ed55" x="618.058973" y="619.6536" style="stroke: #000000; stroke-width: 0.8"/>
      </g>
     </g>
     <g id="text_4">
      <text style="font-size: 10px; font-family: 'DejaVu Sans', 'Bitstream Vera Sans', 'Computer Modern Sans Serif', 'Lucida Grande', 'Verdana', 'Geneva', 'Lucid', 'Arial', 'Helvetica', 'Avant Garde', sans-serif; text-anchor: middle" x="618.058973" y="634.252038" transform="rotate(-0 618.058973 634.252038)">15</text>
     </g>
    </g>
    <g id="xtick_5">
     <g id="line2d_5">
      <g>
       <use xlink:href="#m46d768ed55" x="747.231869" y="619.6536" style="stroke: #000000; stroke-width: 0.8"/>
      </g>
     </g>
     <g id="text_5">
      <text style="font-size: 10px; font-family: 'DejaVu Sans', 'Bitstream Vera Sans', 'Computer Modern Sans Serif', 'Lucida Grande', 'Verdana', 'Geneva', 'Lucid', 'Arial', 'Helvetica', 'Avant Garde', sans-serif; text-anchor: middle" x="747.231869" y="634.252038" transform="rotate(-0 747.231869 634.252038)">20</text>
     </g>
    </g>
    <g id="xtick_6">
     <g id="line2d_6">
      <g>
       <use xlink:href="#m46d768ed55" x="876.404765" y="619.6536" style="stroke: #000000; stroke-width: 0.8"/>
      </g>
     </g>
     <g id="text_6">
      <text style="font-size: 10px; font-family: 'DejaVu Sans', 'Bitstream Vera Sans', 'Computer Modern Sans Serif', 'Lucida Grande', 'Verdana', 'Geneva', 'Lucid', 'Arial', 'Helvetica', 'Avant Garde', sans-serif; text-anchor: middle" x="876.404765" y="634.252038" transform="rotate(-0 876.404765 634.252038)">25</text>
     </g>
    </g>
    <g id="xtick_7">
     <g id="line2d_7">
      <g>
       <use xlink:href="#m46d768ed55" x="1005.577661" y="619.6536" style="stroke: #000000; stroke-width: 0.8"/>
      </g>
     </g>
     <g id="text_7">
      <text style="font-size: 10px; font-family: 'DejaVu Sans', 'Bitstream Vera Sans', 'Computer Modern Sans Serif', 'Lucida Grande', 'Verdana', 'Geneva', 'Lucid', 'Arial', 'Helvetica', 'Avant Garde', sans-serif; text-anchor: middle" x="1005.577661" y="634.252038" transform="rotate(-0 1005.577661 634.252038)">30</text>
     </g>
    </g>
    <g id="xtick_8">
     <g id="line2d_8">
      <g>
       <use xlink:href="#m46d768ed55" x="1134.750557" y="619.6536" style="stroke: #000000; stroke-width: 0.8"/>
      </g>
     </g>
     <g id="text_8">
      <text style="font-size: 10px; font-family: 'DejaVu Sans', 'Bitstream Vera Sans', 'Computer Modern Sans Serif', 'Lucida Grande', 'Verdana', 'Geneva', 'Lucid', 'Arial', 'Helvetica', 'Avant Garde', sans-serif; text-anchor: middle" x="1134.750557" y="634.252038" transform="rotate(-0 1134.750557 634.252038)">35</text>
     </g>
    </g>
    <g id="text_9">
     <text style="font-size: 10px; font-family: 'DejaVu Sans', 'Bitstream Vera Sans', 'Computer Modern Sans Serif', 'Lucida Grande', 'Verdana', 'Geneva', 'Lucid', 'Arial', 'Helvetica', 'Avant Garde', sans-serif; text-anchor: middle" x="708.48" y="647.930163" transform="rotate(-0 708.48 647.930163)">ABC Atlas ant-IRN-PARN Subclasses</text>
    </g>
   </g>
   <g id="matplotlib.axis_2">
    <g id="ytick_1">
     <g id="line2d_9">
      <defs>
       <path id="m03597867d7" d="M 0 0 
L -3.5 0 
" style="stroke: #000000; stroke-width: 0.8"/>
      </defs>
      <g>
       <use xlink:href="#m03597867d7" x="172.8" y="619.6536" style="stroke: #000000; stroke-width: 0.8"/>
      </g>
     </g>
     <g id="text_10">
      <text style="font-size: 10px; font-family: 'DejaVu Sans', 'Bitstream Vera Sans', 'Computer Modern Sans Serif', 'Lucida Grande', 'Verdana', 'Geneva', 'Lucid', 'Arial', 'Helvetica', 'Avant Garde', sans-serif; text-anchor: end" x="165.8" y="623.452819" transform="rotate(-0 165.8 623.452819)">0</text>
     </g>
    </g>
    <g id="ytick_2">
     <g id="line2d_10">
      <g>
       <use xlink:href="#m03597867d7" x="172.8" y="518.200054" style="stroke: #000000; stroke-width: 0.8"/>
      </g>
     </g>
     <g id="text_11">
      <text style="font-size: 10px; font-family: 'DejaVu Sans', 'Bitstream Vera Sans', 'Computer Modern Sans Serif', 'Lucida Grande', 'Verdana', 'Geneva', 'Lucid', 'Arial', 'Helvetica', 'Avant Garde', sans-serif; text-anchor: end" x="165.8" y="521.999272" transform="rotate(-0 165.8 521.999272)">5</text>
     </g>
    </g>
    <g id="ytick_3">
     <g id="line2d_11">
      <g>
       <use xlink:href="#m03597867d7" x="172.8" y="416.746507" style="stroke: #000000; stroke-width: 0.8"/>
      </g>
     </g>
     <g id="text_12">
      <text style="font-size: 10px; font-family: 'DejaVu Sans', 'Bitstream Vera Sans', 'Computer Modern Sans Serif', 'Lucida Grande', 'Verdana', 'Geneva', 'Lucid', 'Arial', 'Helvetica', 'Avant Garde', sans-serif; text-anchor: end" x="165.8" y="420.545726" transform="rotate(-0 165.8 420.545726)">10</text>
     </g>
    </g>
    <g id="ytick_4">
     <g id="line2d_12">
      <g>
       <use xlink:href="#m03597867d7" x="172.8" y="315.292961" style="stroke: #000000; stroke-width: 0.8"/>
      </g>
     </g>
     <g id="text_13">
      <text style="font-size: 10px; font-family: 'DejaVu Sans', 'Bitstream Vera Sans', 'Computer Modern Sans Serif', 'Lucida Grande', 'Verdana', 'Geneva', 'Lucid', 'Arial', 'Helvetica', 'Avant Garde', sans-serif; text-anchor: end" x="165.8" y="319.092179" transform="rotate(-0 165.8 319.092179)">15</text>
     </g>
    </g>
    <g id="ytick_5">
     <g id="line2d_13">
      <g>
       <use xlink:href="#m03597867d7" x="172.8" y="213.839414" style="stroke: #000000; stroke-width: 0.8"/>
      </g>
     </g>
     <g id="text_14">
      <text style="font-size: 10px; font-family: 'DejaVu Sans', 'Bitstream Vera Sans', 'Computer Modern Sans Serif', 'Lucida Grande', 'Verdana', 'Geneva', 'Lucid', 'Arial', 'Helvetica', 'Avant Garde', sans-serif; text-anchor: end" x="165.8" y="217.638633" transform="rotate(-0 165.8 217.638633)">20</text>
     </g>
    </g>
    <g id="ytick_6">
     <g id="line2d_14">
      <g>
       <use xlink:href="#m03597867d7" x="172.8" y="112.385868" style="stroke: #000000; stroke-width: 0.8"/>
      </g>
     </g>
     <g id="text_15">
      <text style="font-size: 10px; font-family: 'DejaVu Sans', 'Bitstream Vera Sans', 'Computer Modern Sans Serif', 'Lucida Grande', 'Verdana', 'Geneva', 'Lucid', 'Arial', 'Helvetica', 'Avant Garde', sans-serif; text-anchor: end" x="165.8" y="116.185087" transform="rotate(-0 165.8 116.185087)">25</text>
     </g>
    </g>
    <g id="text_16">
     <text style="font-size: 10px; font-family: 'DejaVu Sans', 'Bitstream Vera Sans', 'Computer Modern Sans Serif', 'Lucida Grande', 'Verdana', 'Geneva', 'Lucid', 'Arial', 'Helvetica', 'Avant Garde', sans-serif; text-anchor: middle" x="146.995312" y="351.6012" transform="rotate(-90 146.995312 351.6012)">Cell Type Proportion (%)</text>
    </g>
   </g>
   <g id="patch_79">
    <path d="M 172.8 619.6536 
L 172.8 83.5488 
" style="fill: none; stroke: #000000; stroke-width: 0.8; stroke-linejoin: miter; stroke-linecap: square"/>
   </g>
   <g id="patch_80">
    <path d="M 1244.16 619.6536 
L 1244.16 83.5488 
" style="fill: none; stroke: #000000; stroke-width: 0.8; stroke-linejoin: miter; stroke-linecap: square"/>
   </g>
   <g id="patch_81">
    <path d="M 172.8 619.6536 
L 1244.16 619.6536 
" style="fill: none; stroke: #000000; stroke-width: 0.8; stroke-linejoin: miter; stroke-linecap: square"/>
   </g>
   <g id="patch_82">
    <path d="M 172.8 83.5488 
L 1244.16 83.5488 
" style="fill: none; stroke: #000000; stroke-width: 0.8; stroke-linejoin: miter; stroke-linecap: square"/>
   </g>
   <g id="text_17">
    <text style="font-size: 12px; font-family: 'DejaVu Sans', 'Bitstream Vera Sans', 'Computer Modern Sans Serif', 'Lucida Grande', 'Verdana', 'Geneva', 'Lucid', 'Arial', 'Helvetica', 'Avant Garde', sans-serif; text-anchor: middle" x="708.48" y="77.5488" transform="rotate(-0 708.48 77.5488)">ABC Atlas vs. HCR Data</text>
   </g>
   <g id="legend_1">
    <g id="patch_83">
     <path d="M 1048.66 120.90505 
L 1237.16 120.90505 
Q 1239.16 120.90505 1239.16 118.90505 
L 1239.16 90.5488 
Q 1239.16 88.5488 1237.16 88.5488 
L 1048.66 88.5488 
Q 1046.66 88.5488 1046.66 90.5488 
L 1046.66 118.90505 
Q 1046.66 120.90505 1048.66 120.90505 
z
" style="fill: #ffffff; opacity: 0.8; stroke: #cccccc; stroke-linejoin: miter"/>
    </g>
    <g id="patch_84">
     <path d="M 1050.66 100.147238 
L 1070.66 100.147238 
L 1070.66 93.147238 
L 1050.66 93.147238 
z
" style="fill: #4682b4"/>
    </g>
    <g id="text_18">
     <text style="font-size: 10px; font-family: 'DejaVu Sans', 'Bitstream Vera Sans', 'Computer Modern Sans Serif', 'Lucida Grande', 'Verdana', 'Geneva', 'Lucid', 'Arial', 'Helvetica', 'Avant Garde', sans-serif; text-anchor: start" x="1078.66" y="100.147238" transform="rotate(-0 1078.66 100.147238)">ABC Atlas Cell Type Proportions</text>
    </g>
    <g id="patch_85">
     <path d="M 1050.66 114.825363 
L 1070.66 114.825363 
L 1070.66 107.825363 
L 1050.66 107.825363 
z
" style="fill: #ff7f50"/>
    </g>
    <g id="text_19">
     <text style="font-size: 10px; font-family: 'DejaVu Sans', 'Bitstream Vera Sans', 'Computer Modern Sans Serif', 'Lucida Grande', 'Verdana', 'Geneva', 'Lucid', 'Arial', 'Helvetica', 'Avant Garde', sans-serif; text-anchor: start" x="1078.66" y="114.825363" transform="rotate(-0 1078.66 114.825363)">HCR Data Cell Type Proportions</text>
    </g>
   </g>
  </g>
 </g>
 <defs>
  <clipPath id="p74cf76582e">
   <rect x="172.8" y="83.5488" width="1071.36" height="536.1048"/>
  </clipPath>
 </defs>
</svg>
