<?xml version="1.0" encoding="UTF-8"?>
<svg id="Layer_1" data-name="Layer 1" xmlns="http://www.w3.org/2000/svg" version="1.1" viewBox="0 0 460.8 345.6">
  <defs>
    <style>
      .cls-1 {
        fill: #ccff4d;
      }

      .cls-1, .cls-2, .cls-3, .cls-4, .cls-5, .cls-6, .cls-7, .cls-8, .cls-9, .cls-10, .cls-11, .cls-12, .cls-13, .cls-14, .cls-15, .cls-16, .cls-17, .cls-18, .cls-19, .cls-20, .cls-21, .cls-22, .cls-23, .cls-24, .cls-25, .cls-26, .cls-27, .cls-28, .cls-29, .cls-30, .cls-31, .cls-32, .cls-33, .cls-34, .cls-35, .cls-36, .cls-37, .cls-38 {
        stroke-width: 0px;
      }

      .cls-2 {
        fill: #c6ff99;
      }

      .cls-3 {
        fill: #cc8a5c;
      }

      .cls-4 {
        fill: #ff6426;
      }

      .cls-5 {
        fill: #994517;
      }

      .cls-6 {
        fill: #eaff4d;
      }

      .cls-7 {
        fill: #7acc9f;
      }

      .cls-8 {
        fill: #f20985;
      }

      .cls-9 {
        fill: #8c5ccc;
      }

      .cls-10 {
        fill: #3a662e;
      }

      .cls-11 {
        fill: #e57300;
      }

      .cls-12 {
        fill: #995c2e;
      }

      .cls-13 {
        fill: #35cc00;
      }

      .cls-14 {
        fill: #ff73ea;
      }

      .cls-15 {
        fill: #3ecc1f;
      }

      .cls-16 {
        fill: #566600;
      }

      .cls-17 {
        fill: #ff1400;
      }

      .cls-18 {
        fill: #175b99;
      }

      .cls-19 {
        fill: #4dffcd;
      }

      .cls-20 {
        fill: #ab5ccc;
      }

      .cls-21 {
        fill: #84cc3d;
      }

      .cls-22 {
        fill: #efda4f;
      }

      .cls-23 {
        fill: #cc3d70;
      }

      .cls-24 {
        fill: #996e45;
      }

      .cls-25 {
        fill: #66593d;
      }

      .cls-26 {
        fill: #00cc7c;
      }

      .cls-27 {
        fill: #6ff754;
      }

      .cls-28 {
        fill: #5a1f66;
      }

      .cls-29 {
        fill: #559917;
      }

      .cls-30 {
        fill: #cc8e1f;
      }

      .cls-31 {
        fill: #4dbeff;
      }

      .cls-32 {
        fill: #58992e;
      }

      .cls-33 {
        fill: #3dc2cc;
      }

      .cls-34 {
        fill: #72ff00;
      }

      .cls-35 {
        fill: #9b7acc;
      }

      .cls-36 {
        fill: #5c997d;
      }

      .cls-37 {
        fill: #221f66;
      }

      .cls-38 {
        fill: #99ffe4;
      }
    </style>
  </defs>
  <g id="axes_1" data-name="axes 1">
    <g id="patch_2" data-name="patch 2">
      <path class="cls-38" d="M236.2,68.1c-.6,0-1.2,0-1.8,0-.6,0-1.2,0-1.8,0l.9,26.6c.4,0,.9,0,1.3,0,.4,0,.9,0,1.3,0v-26.6Z"/>
    </g>
    <g id="patch_3" data-name="patch 3">
      <path class="cls-18" d="M232.6,68.1c-.1,0-.2,0-.3,0-.1,0-.2,0-.3,0l1,26.6c0,0,.2,0,.2,0,0,0,.2,0,.2,0l-.9-26.6Z"/>
    </g>
    <g id="patch_4" data-name="patch 4">
      <path class="cls-29" d="M232,68.2c-.2,0-.4,0-.6,0-.2,0-.4,0-.6,0l1.3,26.6c.1,0,.3,0,.4,0,.1,0,.3,0,.4,0l-1-26.6Z"/>
    </g>
    <g id="patch_5" data-name="patch 5">
      <path class="cls-9" d="M230.9,68.2c-2.6.1-5.1.3-7.7.7-2.6.3-5.1.7-7.6,1.2l5.2,26.1c1.9-.4,3.8-.7,5.7-.9,1.9-.2,3.8-.4,5.8-.5l-1.3-26.6Z"/>
    </g>
    <g id="patch_6" data-name="patch 6">
      <path class="cls-10" d="M215.5,70.1c-2.2.4-4.4.9-6.6,1.5-2.2.6-4.3,1.2-6.4,1.9l8.4,25.2c1.6-.5,3.2-1,4.8-1.4s3.3-.8,4.9-1.1l-5.2-26.1Z"/>
    </g>
    <g id="patch_7" data-name="patch 7">
      <path class="cls-20" d="M202.5,73.5c-3.1,1-6.2,2.2-9.3,3.6-3,1.3-6,2.8-8.9,4.4l12.9,23.3c2.2-1.2,4.4-2.3,6.7-3.3,2.3-1,4.6-1.9,6.9-2.7l-8.4-25.2Z"/>
    </g>
    <g id="patch_8" data-name="patch 8">
      <path class="cls-15" d="M184.4,81.5c-.7.4-1.5.8-2.2,1.3s-1.5.9-2.2,1.3l14,22.6c.5-.3,1.1-.7,1.6-1s1.1-.6,1.7-.9l-12.9-23.3Z"/>
    </g>
    <g id="patch_9" data-name="patch 9">
      <path class="cls-1" d="M180,84.1c-.3.2-.7.4-1,.6-.3.2-.7.4-1,.7l14.5,22.3c.3-.2.5-.3.8-.5.3-.2.5-.3.8-.5l-14-22.6Z"/>
    </g>
    <g id="patch_10" data-name="patch 10">
      <path class="cls-35" d="M178,85.4c-.9.6-1.8,1.2-2.7,1.9-.9.6-1.8,1.3-2.7,1.9l15.9,21.3c.7-.5,1.3-1,2-1.5.7-.5,1.4-.9,2.1-1.4l-14.5-22.3Z"/>
    </g>
    <g id="patch_11" data-name="patch 11">
      <path class="cls-25" d="M172.5,89.2c-.8.6-1.5,1.2-2.3,1.7-.8.6-1.5,1.2-2.2,1.8l17,20.4c.6-.5,1.1-.9,1.7-1.4.6-.4,1.1-.9,1.7-1.3l-15.9-21.3Z"/>
    </g>
    <g id="patch_12" data-name="patch 12">
      <path class="cls-4" d="M168,92.7c-.4.3-.8.7-1.2,1-.4.3-.8.7-1.2,1l17.6,19.9c.3-.3.6-.5.9-.8s.6-.5.9-.7l-17-20.4Z"/>
    </g>
    <g id="patch_13" data-name="patch 13">
      <path class="cls-7" d="M165.7,94.7c-10.2,9-18.6,20-24.7,32.2s-9.8,25.5-10.9,39.1l26.5,2.1c.8-10.2,3.6-20.2,8.2-29.3,4.6-9.2,10.9-17.3,18.6-24.1l-17.6-19.9Z"/>
    </g>
    <g id="patch_14" data-name="patch 14">
      <path class="cls-24" d="M130.1,166c0,.2,0,.4,0,.5s0,.4,0,.6l26.5,1.9c0-.1,0-.3,0-.4,0-.1,0-.3,0-.4l-26.5-2.1Z"/>
    </g>
    <g id="patch_15" data-name="patch 15">
      <path class="cls-2" d="M130,167.1c-1.6,22.4,4,44.8,15.9,63.8,11.9,19.1,29.5,33.9,50.4,42.3l10-24.7c-15.6-6.3-28.8-17.4-37.8-31.7-8.9-14.3-13.1-31.1-11.9-47.9l-26.5-1.9Z"/>
    </g>
    <g id="patch_16" data-name="patch 16">
      <path class="cls-21" d="M196.2,273.2c1,.4,2.1.8,3.1,1.2,1,.4,2.1.7,3.1,1.1l8.4-25.2c-.8-.3-1.6-.5-2.3-.8-.8-.3-1.5-.6-2.3-.9l-10,24.7Z"/>
    </g>
    <g id="patch_17" data-name="patch 17">
      <path class="cls-28" d="M202.4,275.5c.6.2,1.2.4,1.8.6.6.2,1.2.4,1.8.5l7.5-25.5c-.4-.1-.9-.3-1.3-.4-.4-.1-.9-.3-1.3-.4l-8.4,25.2Z"/>
    </g>
    <g id="patch_18" data-name="patch 18">
      <path class="cls-33" d="M206,276.6c1.8.5,3.7,1,5.5,1.5,1.9.4,3.7.8,5.6,1.2l4.7-26.2c-1.4-.3-2.8-.5-4.2-.9-1.4-.3-2.8-.7-4.2-1.1l-7.5,25.5Z"/>
    </g>
    <g id="patch_19" data-name="patch 19">
      <path class="cls-37" d="M217.2,279.3c.8.2,1.7.3,2.5.4s1.7.3,2.5.4l3.5-26.4c-.6,0-1.3-.2-1.9-.3-.6,0-1.3-.2-1.9-.3l-4.7,26.2Z"/>
    </g>
    <g id="patch_20" data-name="patch 20">
      <path class="cls-16" d="M222.2,280.1c3.4.5,6.9.7,10.3.9,3.5.1,6.9,0,10.4-.2l-1.7-26.6c-2.6.2-5.2.2-7.8.1-2.6,0-5.2-.3-7.7-.6l-3.5,26.4Z"/>
    </g>
    <g id="patch_21" data-name="patch 21">
      <path class="cls-26" d="M242.9,280.8c.3,0,.7,0,1,0s.7,0,1,0l-2.2-26.5c-.2,0-.5,0-.7,0-.2,0-.5,0-.7,0l1.7,26.6Z"/>
    </g>
    <g id="patch_22" data-name="patch 22">
      <path class="cls-30" d="M244.9,280.6c3.7-.3,7.3-.8,10.9-1.5s7.2-1.5,10.7-2.6l-7.6-25.5c-2.6.8-5.3,1.4-8,1.9-2.7.5-5.4.9-8.2,1.1l2.2,26.5Z"/>
    </g>
    <g id="patch_23" data-name="patch 23">
      <path class="cls-6" d="M266.5,276.6c10.7-3.2,20.8-8,29.9-14.3,9.2-6.3,17.3-14,24.1-22.8l-21.1-16.2c-5.1,6.6-11.2,12.4-18.1,17.1-6.9,4.7-14.5,8.3-22.5,10.7l7.6,25.5Z"/>
    </g>
    <g id="patch_24" data-name="patch 24">
      <path class="cls-19" d="M320.5,239.4c1.1-1.4,2.2-2.9,3.2-4.4s2-3,3-4.5l-22.6-14c-.7,1.1-1.5,2.3-2.2,3.4s-1.6,2.2-2.4,3.3l21.1,16.2Z"/>
    </g>
    <g id="patch_25" data-name="patch 25">
      <path class="cls-32" d="M326.7,230.5c.9-1.5,1.8-3,2.7-4.6s1.7-3.1,2.4-4.7l-23.9-11.7c-.6,1.2-1.2,2.4-1.8,3.5-.6,1.2-1.3,2.3-2,3.4l22.6,14Z"/>
    </g>
    <g id="patch_26" data-name="patch 26">
      <path class="cls-11" d="M331.8,221.3c.5-1.1,1-2.2,1.5-3.3.5-1.1,1-2.2,1.4-3.3l-24.7-10c-.3.8-.7,1.7-1.1,2.5s-.8,1.7-1.2,2.5l23.9,11.7Z"/>
    </g>
    <g id="patch_27" data-name="patch 27">
      <path class="cls-13" d="M334.8,214.6c1.2-2.9,2.2-5.8,3.1-8.7.9-3,1.7-5.9,2.3-9l-26-5.6c-.5,2.3-1.1,4.5-1.8,6.7-.7,2.2-1.5,4.4-2.3,6.5l24.7,10Z"/>
    </g>
    <g id="patch_28" data-name="patch 28">
      <path class="cls-12" d="M340.2,196.9c0-.1,0-.2,0-.3,0-.1,0-.2,0-.3l-26-5.4c0,0,0,.2,0,.2,0,0,0,.2,0,.2l26,5.6Z"/>
    </g>
    <g id="patch_29" data-name="patch 29">
      <path class="cls-8" d="M340.4,196.3c4.8-23.1,1.8-47.2-8.6-68.5-10.4-21.2-27.5-38.4-48.8-48.8l-11.7,23.9c15.9,7.8,28.8,20.7,36.6,36.6,7.8,15.9,10,34,6.4,51.4l26,5.4Z"/>
    </g>
    <g id="patch_30" data-name="patch 30">
      <path class="cls-31" d="M283,79c-.1,0-.3-.1-.4-.2-.1,0-.3-.1-.4-.2l-11.5,24c0,0,.2,0,.3.1,0,0,.2,0,.3.1l11.7-23.9Z"/>
    </g>
    <g id="patch_31" data-name="patch 31">
      <path class="cls-27" d="M282.2,78.6c-1.9-.9-3.8-1.8-5.7-2.6-1.9-.8-3.9-1.5-5.9-2.2l-8.6,25.2c1.5.5,3,1.1,4.4,1.7,1.5.6,2.9,1.2,4.3,1.9l11.5-24Z"/>
    </g>
    <g id="patch_32" data-name="patch 32">
      <path class="cls-3" d="M270.6,73.8c-.2,0-.5-.2-.7-.2-.2,0-.5-.2-.7-.2l-8.2,25.3c.2,0,.4.1.6.2s.4.1.5.2l8.6-25.2Z"/>
    </g>
    <g id="patch_33" data-name="patch 33">
      <path class="cls-23" d="M269.1,73.3c-1.3-.4-2.5-.8-3.8-1.2-1.3-.4-2.6-.7-3.8-1l-6.3,25.8c1,.2,1.9.5,2.9.8s1.9.6,2.8.9l8.2-25.3Z"/>
    </g>
    <g id="patch_34" data-name="patch 34">
      <path class="cls-22" d="M261.5,71.1c-.4,0-.7-.2-1.1-.3s-.7-.2-1.1-.2l-5.8,26c.3,0,.5.1.8.2.3,0,.5.1.8.2l6.3-25.8Z"/>
    </g>
    <g id="patch_35" data-name="patch 35">
      <path class="cls-34" d="M259.4,70.6c-1.3-.3-2.7-.6-4-.8s-2.7-.5-4-.7l-3.8,26.3c1,.1,2,.3,3,.5s2,.4,3,.6l5.8-26Z"/>
    </g>
    <g id="patch_36" data-name="patch 36">
      <path class="cls-36" d="M251.3,69.2c-.3,0-.6,0-.9-.1-.3,0-.6,0-.9-.1l-3.4,26.4c.2,0,.4,0,.7,0s.4,0,.7,0l3.8-26.3Z"/>
    </g>
    <g id="patch_37" data-name="patch 37">
      <path class="cls-17" d="M249.6,68.9c-.7,0-1.5-.2-2.2-.3s-1.5-.1-2.2-.2l-2.3,26.5c.5,0,1.1,0,1.6.2.5,0,1.1.1,1.6.2l3.4-26.4Z"/>
    </g>
    <g id="patch_38" data-name="patch 38">
      <path class="cls-14" d="M245.2,68.5c-.3,0-.5,0-.8,0-.3,0-.5,0-.8,0l-1.9,26.5c.2,0,.4,0,.6,0,.2,0,.4,0,.6,0l2.3-26.5Z"/>
    </g>
    <g id="patch_39" data-name="patch 39">
      <path class="cls-5" d="M243.7,68.3c-1.2,0-2.5-.2-3.7-.2-1.2,0-2.5,0-3.8,0v26.6c.9,0,1.9,0,2.8,0,.9,0,1.9,0,2.8.1l1.9-26.5Z"/>
    </g>
  </g>
</svg>