<?xml version="1.0" encoding="UTF-8"?>
<svg id="Layer_1" data-name="Layer 1" xmlns="http://www.w3.org/2000/svg" version="1.1" viewBox="0 0 460.8 345.6">
  <defs>
    <style>
      .cls-1 {
        fill: #999145;
      }

      .cls-1, .cls-2, .cls-3, .cls-4, .cls-5, .cls-6, .cls-7, .cls-8, .cls-9, .cls-10, .cls-11, .cls-12, .cls-13, .cls-14, .cls-15, .cls-16, .cls-17, .cls-18, .cls-19, .cls-20, .cls-21, .cls-22, .cls-23, .cls-24, .cls-25, .cls-26, .cls-27, .cls-28, .cls-29, .cls-30, .cls-31, .cls-32, .cls-33, .cls-34, .cls-35, .cls-36, .cls-37, .cls-38, .cls-39, .cls-40 {
        stroke-width: 0px;
      }

      .cls-2 {
        fill: #e9530f;
      }

      .cls-3 {
        fill: #c6ff99;
      }

      .cls-4 {
        fill: #660f38;
      }

      .cls-5 {
        fill: #1f8acc;
      }

      .cls-6 {
        fill: #eaff4d;
      }

      .cls-7 {
        fill: #7acc9f;
      }

      .cls-8 {
        fill: #c973ff;
      }

      .cls-9 {
        fill: #61cc5c;
      }

      .cls-10 {
        fill: #1f665d;
      }

      .cls-11 {
        fill: #925c99;
      }

      .cls-12 {
        fill: #f20985;
      }

      .cls-13 {
        fill: #bbff73;
      }

      .cls-14 {
        fill: #940099;
      }

      .cls-15 {
        fill: #456c99;
      }

      .cls-16 {
        fill: #cc6b3d;
      }

      .cls-17 {
        fill: #566600;
      }

      .cls-18 {
        fill: #3dccb7;
      }

      .cls-19 {
        fill: #b899ff;
      }

      .cls-20 {
        fill: #ab5ccc;
      }

      .cls-21 {
        fill: #84cc3d;
      }

      .cls-22 {
        fill: #f99;
      }

      .cls-23 {
        fill: #c0ff4d;
      }

      .cls-24 {
        fill: #0f3466;
      }

      .cls-25 {
        fill: #76cc5c;
      }

      .cls-26 {
        fill: #cc3d70;
      }

      .cls-27 {
        fill: #1f46cc;
      }

      .cls-28 {
        fill: #5a1f66;
      }

      .cls-29 {
        fill: #00ff6c;
      }

      .cls-30 {
        fill: #c400ff;
      }

      .cls-31 {
        fill: #4dbeff;
      }

      .cls-32 {
        fill: #64c2fc;
      }

      .cls-33 {
        fill: #ffd573;
      }

      .cls-34 {
        fill: #ff004b;
      }

      .cls-35 {
        fill: #ff7391;
      }

      .cls-36 {
        fill: #0f6632;
      }

      .cls-37 {
        fill: #3dc2cc;
      }

      .cls-38 {
        fill: #99a2ff;
      }

      .cls-39 {
        fill: #66502e;
      }

      .cls-40 {
        fill: #221f66;
      }
    </style>
  </defs>
  <g id="axes_1" data-name="axes 1">
    <g id="patch_2" data-name="patch 2">
      <path class="cls-32" d="M236.2,68.1c-1.5,0-2.9,0-4.4,0s-2.9.1-4.4.3l2.2,26.5c1.1,0,2.2-.2,3.3-.2,1.1,0,2.2,0,3.3,0v-26.6Z"/>
    </g>
    <g id="patch_3" data-name="patch 3">
      <path class="cls-10" d="M227.4,68.4c-.1,0-.2,0-.4,0-.1,0-.2,0-.4,0l2.4,26.5c0,0,.2,0,.3,0,0,0,.2,0,.3,0l-2.2-26.5Z"/>
    </g>
    <g id="patch_4" data-name="patch 4">
      <path class="cls-30" d="M226.7,68.5c-.8,0-1.7.2-2.5.3-.8,0-1.7.2-2.5.3l3.6,26.4c.6,0,1.3-.2,1.9-.2.6,0,1.3-.1,1.9-.2l-2.4-26.5Z"/>
    </g>
    <g id="patch_5" data-name="patch 5">
      <path class="cls-23" d="M221.7,69.1c-3.3.5-6.6,1.1-9.8,1.8-3.2.8-6.5,1.7-9.6,2.7l8.5,25.2c2.4-.8,4.8-1.5,7.2-2.1,2.4-.6,4.9-1,7.4-1.4l-3.6-26.4Z"/>
    </g>
    <g id="patch_6" data-name="patch 6">
      <path class="cls-4" d="M202.2,73.6c-2.8.9-5.6,2-8.3,3.2-2.7,1.2-5.4,2.5-8,3.9l12.6,23.5c2-1.1,4-2,6-2.9s4.1-1.7,6.2-2.4l-8.5-25.2Z"/>
    </g>
    <g id="patch_7" data-name="patch 7">
      <path class="cls-18" d="M185.9,80.7c-7.9,4.2-15.2,9.4-21.7,15.4-6.6,6-12.4,12.9-17.2,20.3l22.3,14.5c3.6-5.6,8-10.7,12.9-15.3s10.4-8.4,16.3-11.6l-12.6-23.5Z"/>
    </g>
    <g id="patch_8" data-name="patch 8">
      <path class="cls-2" d="M147,116.5c-4,6.2-7.4,12.8-10.1,19.7-2.7,6.9-4.6,14.1-5.8,21.4l26.3,4.3c.9-5.5,2.3-10.8,4.3-16,2-5.2,4.5-10.1,7.6-14.8l-22.3-14.5Z"/>
    </g>
    <g id="patch_9" data-name="patch 9">
      <path class="cls-27" d="M131.1,157.5c0,0,0,.1,0,.2,0,0,0,.1,0,.2l26.3,4.2s0,0,0-.1c0,0,0,0,0-.1l-26.3-4.3Z"/>
    </g>
    <g id="patch_10" data-name="patch 10">
      <path class="cls-14" d="M131,157.9c-.4,2.5-.7,4.9-.9,7.4-.2,2.5-.3,5-.4,7.4l26.6.5c0-1.9.1-3.7.3-5.6.2-1.9.4-3.7.7-5.5l-26.3-4.2Z"/>
    </g>
    <g id="patch_11" data-name="patch 11">
      <path class="cls-34" d="M129.7,172.7c-.3,18.8,4.3,37.3,13.5,53.7,9.1,16.4,22.5,30.1,38.6,39.7l13.6-22.9c-12.1-7.2-22.1-17.5-28.9-29.7s-10.3-26.2-10.1-40.3l-26.6-.5Z"/>
    </g>
    <g id="patch_12" data-name="patch 12">
      <path class="cls-15" d="M181.8,266c7.8,4.6,16.1,8.2,24.8,10.7s17.6,3.9,26.7,4.2l.7-26.6c-6.8-.2-13.5-1.2-20-3.1s-12.8-4.6-18.6-8.1l-13.6,22.9Z"/>
    </g>
    <g id="patch_13" data-name="patch 13">
      <path class="cls-9" d="M233.3,280.9c.4,0,.7,0,1.1,0,.4,0,.7,0,1.1,0l.2-26.6c-.3,0-.5,0-.8,0-.3,0-.5,0-.8,0l-.7,26.6Z"/>
    </g>
    <g id="patch_14" data-name="patch 14">
      <path class="cls-13" d="M235.4,281c3,0,6.1,0,9.1-.3,3-.2,6-.6,9-1.1l-4.3-26.3c-2.2.4-4.5.6-6.8.8s-4.5.3-6.8.2l-.2,26.6Z"/>
    </g>
    <g id="patch_15" data-name="patch 15">
      <path class="cls-24" d="M253.5,279.5c2.2-.4,4.4-.8,6.6-1.3,2.2-.5,4.4-1.1,6.5-1.7l-7.6-25.5c-1.6.5-3.2.9-4.9,1.3s-3.3.7-4.9,1l4.3,26.3Z"/>
    </g>
    <g id="patch_16" data-name="patch 16">
      <path class="cls-8" d="M266.6,276.5c9.6-2.9,18.7-7.1,27.2-12.5,8.4-5.4,16-12,22.6-19.5l-20.1-17.5c-4.9,5.7-10.6,10.6-17,14.7-6.3,4.1-13.2,7.2-20.4,9.4l7.6,25.5Z"/>
    </g>
    <g id="patch_17" data-name="patch 17">
      <path class="cls-36" d="M316.4,244.5c.2-.2.3-.4.5-.5.2-.2.3-.4.5-.6l-20.3-17.2c-.1.1-.2.3-.4.4-.1.1-.2.3-.4.4l20.1,17.5Z"/>
    </g>
    <g id="patch_18" data-name="patch 18">
      <path class="cls-11" d="M317.3,243.4c.4-.5.8-.9,1.2-1.4.4-.5.8-.9,1.1-1.4l-20.9-16.5c-.3.4-.6.7-.9,1.1-.3.4-.6.7-.9,1l20.3,17.2Z"/>
    </g>
    <g id="patch_19" data-name="patch 19">
      <path class="cls-1" d="M319.6,240.6c.4-.5.8-1,1.2-1.6.4-.5.8-1.1,1.2-1.6l-21.5-15.7c-.3.4-.6.8-.9,1.2-.3.4-.6.8-.9,1.2l20.9,16.5Z"/>
    </g>
    <g id="patch_20" data-name="patch 20">
      <path class="cls-38" d="M322.1,237.4c4.5-6.2,8.4-12.9,11.5-20,3.1-7,5.4-14.4,6.9-22l-26.1-5.2c-1.1,5.7-2.9,11.2-5.2,16.5s-5.2,10.3-8.6,15l21.5,15.7Z"/>
    </g>
    <g id="patch_21" data-name="patch 21">
      <path class="cls-22" d="M340.5,195.5c.1-.5.2-1.1.3-1.6s.2-1.1.3-1.6l-26.2-4.4c0,.4-.1.8-.2,1.2,0,.4-.2.8-.2,1.2l26.1,5.2Z"/>
    </g>
    <g id="patch_22" data-name="patch 22">
      <path class="cls-35" d="M341.1,192.3c0-.2,0-.4,0-.5,0-.2,0-.4,0-.5l-26.3-4.2c0,.1,0,.3,0,.4,0,.1,0,.3,0,.4l26.2,4.4Z"/>
    </g>
    <g id="patch_23" data-name="patch 23">
      <path class="cls-33" d="M341.3,191.2c0-.3,0-.6.1-.9s0-.6.1-.9l-26.4-3.7c0,.2,0,.4,0,.7,0,.2,0,.4-.1.7l26.3,4.2Z"/>
    </g>
    <g id="patch_24" data-name="patch 24">
      <path class="cls-19" d="M341.6,189.4c0,0,0-.1,0-.2,0,0,0-.1,0-.2l-26.4-3.6s0,0,0,.1c0,0,0,0,0,.1l26.4,3.7Z"/>
    </g>
    <g id="patch_25" data-name="patch 25">
      <path class="cls-16" d="M341.6,189c0,0,0-.1,0-.2s0-.1,0-.2l-26.4-3.5s0,0,0,.1c0,0,0,0,0,.1l26.4,3.6Z"/>
    </g>
    <g id="patch_26" data-name="patch 26">
      <path class="cls-25" d="M341.7,188.7c0-.2,0-.5,0-.7,0-.2,0-.5,0-.7l-26.4-3.2c0,.2,0,.4,0,.5,0,.2,0,.4,0,.5l26.4,3.5Z"/>
    </g>
    <g id="patch_27" data-name="patch 27">
      <path class="cls-5" d="M341.8,187.2c0,0,0-.1,0-.2,0,0,0-.1,0-.2l-26.4-3.1s0,0,0,.1c0,0,0,0,0,.1l26.4,3.2Z"/>
    </g>
    <g id="patch_28" data-name="patch 28">
      <path class="cls-20" d="M341.9,186.9c.2-1.8.4-3.6.5-5.4.1-1.8.2-3.6.2-5.4l-26.6-.4c0,1.4,0,2.7-.2,4.1s-.2,2.7-.4,4.1l26.4,3.1Z"/>
    </g>
    <g id="patch_29" data-name="patch 29">
      <path class="cls-7" d="M342.6,176c.2-17.1-3.7-34-11.3-49.3-7.7-15.3-18.9-28.5-32.8-38.5l-15.6,21.6c10.4,7.5,18.8,17.4,24.6,28.9,5.8,11.5,8.7,24.1,8.5,37l26.6.4Z"/>
    </g>
    <g id="patch_30" data-name="patch 30">
      <path class="cls-3" d="M298.4,88.2c-.4-.3-.8-.6-1.2-.8-.4-.3-.8-.6-1.2-.8l-15,22c.3.2.6.4.9.6s.6.4.9.6l15.6-21.6Z"/>
    </g>
    <g id="patch_31" data-name="patch 31">
      <path class="cls-21" d="M296.1,86.5c-.3-.2-.5-.3-.8-.5-.3-.2-.5-.3-.8-.5l-14.6,22.3c.2.1.4.2.6.4.2.1.4.3.6.4l15-22Z"/>
    </g>
    <g id="patch_32" data-name="patch 32">
      <path class="cls-28" d="M294.5,85.5c-.1,0-.2-.1-.3-.2-.1,0-.2-.1-.3-.2l-14.4,22.4c0,0,.2,0,.2.1,0,0,.2,0,.2.1l14.6-22.3Z"/>
    </g>
    <g id="patch_33" data-name="patch 33">
      <path class="cls-37" d="M293.9,85.1c-2.3-1.5-4.7-2.9-7.2-4.3-2.5-1.3-5-2.6-7.5-3.7l-10.8,24.3c1.9.8,3.8,1.8,5.6,2.8,1.8,1,3.6,2.1,5.4,3.2l14.4-22.4Z"/>
    </g>
    <g id="patch_34" data-name="patch 34">
      <path class="cls-40" d="M279.2,77.2c-2.5-1.1-5-2.1-7.6-3-2.6-.9-5.2-1.7-7.8-2.4l-6.9,25.7c2,.5,3.9,1.1,5.9,1.8,1.9.7,3.8,1.4,5.7,2.3l10.8-24.3Z"/>
    </g>
    <g id="patch_35" data-name="patch 35">
      <path class="cls-17" d="M263.8,71.7c-3.7-1-7.5-1.8-11.4-2.4-3.8-.6-7.7-1-11.6-1.1l-1.2,26.6c2.9.1,5.8.4,8.7.9,2.9.4,5.7,1,8.5,1.8l6.9-25.7Z"/>
    </g>
    <g id="patch_36" data-name="patch 36">
      <path class="cls-6" d="M240.9,68.2c0,0-.1,0-.2,0,0,0-.1,0-.2,0l-1.1,26.6s0,0,.1,0,0,0,.1,0l1.2-26.6Z"/>
    </g>
    <g id="patch_37" data-name="patch 37">
      <path class="cls-12" d="M240.5,68.2c-.2,0-.5,0-.7,0-.2,0-.5,0-.7,0l-.7,26.6c.2,0,.4,0,.5,0,.2,0,.4,0,.5,0l1.1-26.6Z"/>
    </g>
    <g id="patch_38" data-name="patch 38">
      <path class="cls-31" d="M239.1,68.1c-.1,0-.2,0-.4,0s-.2,0-.4,0l-.5,26.6c0,0,.2,0,.3,0,0,0,.2,0,.3,0l.7-26.6Z"/>
    </g>
    <g id="patch_39" data-name="patch 39">
      <path class="cls-39" d="M238.3,68.1c0,0-.1,0-.2,0s-.1,0-.2,0l-.5,26.6s0,0,.1,0c0,0,0,0,.1,0l.5-26.6Z"/>
    </g>
    <g id="patch_40" data-name="patch 40">
      <path class="cls-29" d="M238,68.1c-.2,0-.4,0-.5,0-.2,0-.4,0-.5,0l-.2,26.6c.1,0,.3,0,.4,0,.1,0,.3,0,.4,0l.5-26.6Z"/>
    </g>
    <g id="patch_41" data-name="patch 41">
      <path class="cls-26" d="M236.9,68.1c-.1,0-.2,0-.4,0s-.2,0-.4,0v26.6c0,0,.2,0,.3,0,0,0,.2,0,.3,0l.2-26.6Z"/>
    </g>
  </g>
</svg>